{
    "accessors" : [
        {
            "bufferView" : 0,
            "componentType" : 5123,
            "count" : 6489,
            "max" : [
                1798
            ],
            "min" : [
                0
            ],
            "type" : "SCALAR"
        },
        {
            "bufferView" : 1,
            "componentType" : 5126,
            "count" : 1799,
            "max" : [
                0.9877642393112183,
                0.9877650737762451,
                1.1863363981246948
            ],
            "min" : [
                -0.9877644777297974,
                -0.9877645373344421,
                -4.798184871673584
            ],
            "type" : "VEC3"
        },
        {
            "bufferView" : 2,
            "componentType" : 5126,
            "count" : 1799,
            "max" : [
                1.0,
                1.0,
                1.0
            ],
            "min" : [
                -1.0,
                -1.0,
                -1.0
            ],
            "type" : "VEC3"
        },
        {
            "bufferView" : 3,
            "componentType" : 5126,
            "count" : 1799,
            "max" : [
                1.0,
                1.0,
                1.0,
                1.0
            ],
            "min" : [
                -1.0,
                -1.0,
                -1.0,
                -1.0
            ],
            "type" : "VEC4"
        },
        {
            "bufferView" : 4,
            "componentType" : 5126,
            "count" : 1799,
            "max" : [
                0.65625,
                1.000000074505806
            ],
            "min" : [
                0.3437499701976776,
                0.0
            ],
            "type" : "VEC2"
        },
        {
            "bufferView" : 5,
            "componentType" : 5123,
            "count" : 3120,
            "max" : [
                898
            ],
            "min" : [
                0
            ],
            "type" : "SCALAR"
        },
        {
            "bufferView" : 6,
            "componentType" : 5126,
            "count" : 899,
            "max" : [
                0.9877642393112183,
                0.9877650737762451,
                1.2091453075408936
            ],
            "min" : [
                -0.9877643585205078,
                -0.9877644777297974,
                -8.001789093017578
            ],
            "type" : "VEC3"
        },
        {
            "bufferView" : 7,
            "componentType" : 5126,
            "count" : 899,
            "max" : [
                1.0,
                1.0,
                1.0
            ],
            "min" : [
                -1.0,
                -1.0,
                -0.999969482421875
            ],
            "type" : "VEC3"
        },
        {
            "bufferView" : 8,
            "componentType" : 5126,
            "count" : 899,
            "max" : [
                1.0,
                0.9999984502792358,
                1.0,
                1.0
            ],
            "min" : [
                -0.9884881973266602,
                -0.9998645186424255,
                -1.0,
                -1.0
            ],
            "type" : "VEC4"
        },
        {
            "bufferView" : 9,
            "componentType" : 5126,
            "count" : 899,
            "max" : [
                0.6543381810188293,
                0.9839950054883957
            ],
            "min" : [
                0.34566178917884827,
                0.0019118785858154297
            ],
            "type" : "VEC2"
        },
        {
            "bufferView" : 10,
            "componentType" : 5123,
            "count" : 3840,
            "max" : [
                1182
            ],
            "min" : [
                0
            ],
            "type" : "SCALAR"
        },
        {
            "bufferView" : 11,
            "componentType" : 5126,
            "count" : 1183,
            "max" : [
                0.9877642393112183,
                0.9877650737762451,
                -4.798184394836426
            ],
            "min" : [
                -0.9877643585205078,
                -0.9877644777297974,
                -7.654260158538818
            ],
            "type" : "VEC3"
        },
        {
            "bufferView" : 12,
            "componentType" : 5126,
            "count" : 1183,
            "max" : [
                1.0,
                1.0,
                -0.0
            ],
            "min" : [
                -1.0,
                -1.0,
                -0.9998779296875
            ],
            "type" : "VEC3"
        },
        {
            "bufferView" : 13,
            "componentType" : 5126,
            "count" : 1183,
            "max" : [
                1.0,
                0.9999904036521912,
                1.0,
                1.0
            ],
            "min" : [
                -0.9997334480285645,
                -1.0,
                -1.0,
                -1.0
            ],
            "type" : "VEC4"
        },
        {
            "bufferView" : 14,
            "componentType" : 5126,
            "count" : 1183,
            "max" : [
                0.6543381810188293,
                0.3105882406234741
            ],
            "min" : [
                0.34566181898117065,
                0.0019118785858154297
            ],
            "type" : "VEC2"
        }
    ],
    "asset" : {
        "generator" : "Khronos Blender glTF 2.0 exporter",
        "version" : "2.0"
    },
    "bufferViews" : [
        {
            "buffer" : 0,
            "byteLength" : 12978,
            "byteOffset" : 0,
            "target" : 34963
        },
        {
            "buffer" : 0,
            "byteLength" : 21588,
            "byteOffset" : 12980,
            "target" : 34962
        },
        {
            "buffer" : 0,
            "byteLength" : 21588,
            "byteOffset" : 34568,
            "target" : 34962
        },
        {
            "buffer" : 0,
            "byteLength" : 28784,
            "byteOffset" : 56156,
            "target" : 34962
        },
        {
            "buffer" : 0,
            "byteLength" : 14392,
            "byteOffset" : 84940,
            "target" : 34962
        },
        {
            "buffer" : 0,
            "byteLength" : 6240,
            "byteOffset" : 99332,
            "target" : 34963
        },
        {
            "buffer" : 0,
            "byteLength" : 10788,
            "byteOffset" : 105572,
            "target" : 34962
        },
        {
            "buffer" : 0,
            "byteLength" : 10788,
            "byteOffset" : 116360,
            "target" : 34962
        },
        {
            "buffer" : 0,
            "byteLength" : 14384,
            "byteOffset" : 127148,
            "target" : 34962
        },
        {
            "buffer" : 0,
            "byteLength" : 7192,
            "byteOffset" : 141532,
            "target" : 34962
        },
        {
            "buffer" : 0,
            "byteLength" : 7680,
            "byteOffset" : 148724,
            "target" : 34963
        },
        {
            "buffer" : 0,
            "byteLength" : 14196,
            "byteOffset" : 156404,
            "target" : 34962
        },
        {
            "buffer" : 0,
            "byteLength" : 14196,
            "byteOffset" : 170600,
            "target" : 34962
        },
        {
            "buffer" : 0,
            "byteLength" : 18928,
            "byteOffset" : 184796,
            "target" : 34962
        },
        {
            "buffer" : 0,
            "byteLength" : 9464,
            "byteOffset" : 203724,
            "target" : 34962
        }
    ],
    "buffers" : [
        {
            "byteLength" : 213188,
            "uri" : "Battery.bin"
        }
    ],
    "materials" : [
        {
            "name" : "black",
            "pbrMetallicRoughness" : {
                "baseColorFactor" : [
                    0.0,
                    0.0,
                    0.0,
                    1.0
                ],
                "metallicFactor" : 0.0
            }
        },
        {
            "name" : "dark_gold",
            "pbrMetallicRoughness" : {
                "baseColorFactor" : [
                    0.36062863410455925,
                    0.18764047902286762,
                    0.05478253446195325,
                    1.0
                ],
                "metallicFactor" : 0.0
            }
        },
        {
            "name" : "silver",
            "pbrMetallicRoughness" : {
                "baseColorFactor" : [
                    0.6389610385739957,
                    0.6389610385739957,
                    0.6389610385739957,
                    1.0
                ],
                "metallicFactor" : 0.0
            }
        }
    ],
    "meshes" : [
        {
            "name" : "Untitled",
            "primitives" : [
                {
                    "attributes" : {
                        "NORMAL" : 2,
                        "POSITION" : 1,
                        "TANGENT" : 3,
                        "TEXCOORD_0" : 4
                    },
                    "indices" : 0,
                    "material" : 0
                },
                {
                    "attributes" : {
                        "NORMAL" : 7,
                        "POSITION" : 6,
                        "TANGENT" : 8,
                        "TEXCOORD_0" : 9
                    },
                    "indices" : 5,
                    "material" : 2
                },
                {
                    "attributes" : {
                        "NORMAL" : 12,
                        "POSITION" : 11,
                        "TANGENT" : 13,
                        "TEXCOORD_0" : 14
                    },
                    "indices" : 10,
                    "material" : 1
                }
            ]
        }
    ],
    "nodes" : [
        {
            "name" : "Camera",
            "rotation" : [
                0.483536034822464,
                0.33687159419059753,
                -0.20870360732078552,
                0.7804827094078064
            ],
            "translation" : [
                7.481131553649902,
                5.34366512298584,
                6.5076398849487305
            ]
        },
        {
            "name" : "Lamp",
            "rotation" : [
                0.16907575726509094,
                0.7558802962303162,
                -0.27217137813568115,
                0.570947527885437
            ],
            "scale" : [
                1.0,
                1.0,
                0.9999999403953552
            ],
            "translation" : [
                4.076245307922363,
                5.903861999511719,
                -1.0054539442062378
            ]
        },
        {
            "mesh" : 0,
            "name" : "pCylinder1",
            "rotation" : [
                0.7071068286895752,
                0.0,
                -0.0,
                0.7071067094802856
            ],
            "scale" : [
                1.5002467632293701,
                1.4851500988006592,
                0.5724444389343262
            ],
            "translation" : [
                0.11956237256526947,
                0.02072141133248806,
                0.06702834367752075
            ]
        }
    ],
    "scene" : 0,
    "scenes" : [
        {
            "name" : "Scene",
            "nodes" : [
                2,
                1,
                0
            ]
        }
    ]
}
